<svg width="24" height="24" viewBox="0 0 24 24" fill="none" xmlns="http://www.w3.org/2000/svg">
<path d="M11.9998 13.3893C13.2508 13.3893 14.3589 12.498 15.0431 11.1252C15.4193 10.3706 15.6672 9.47206 15.7407 8.49648C15.7669 8.31828 15.7798 8.13666 15.7838 7.9521L15.5503 7.90908H15.5261L14.2523 7.74701C14.9514 7.34368 14.5821 6.46123 14.4097 6.16546C14.3582 6.07794 14.323 6.02637 14.323 6.02637C14.3142 6.03419 14.3032 6.04103 14.2936 6.04788C12.3036 7.48154 10.6744 8.02543 10.6744 8.02543C9.77482 8.38061 8.26929 8.63019 8.26953 8.62921C8.51593 11.3169 10.0924 13.3893 11.9998 13.3893Z" fill="#556080"/>
<path d="M13.8667 14.0499L14.3681 13.0074C13.6898 13.6649 12.8758 14.0499 11.9999 14.0499C11.1043 14.0499 10.2727 13.6476 9.58432 12.9604L10.3025 14.5618C10.1343 14.2873 9.48728 14.1467 8.72266 14.08C9.01795 14.6256 9.74957 15.0678 10.6968 15.2822L12.0004 17.4005L13.3035 15.2822C14.4537 15.0216 15.2882 14.4266 15.4058 13.7177C15.3366 13.7163 15.2681 13.7158 15.2009 13.7158C14.5514 13.7153 14.0195 13.7986 13.8667 14.0499Z" fill="#556080"/>
<path d="M5.36627 14.961C5.79258 14.5828 6.27487 14.2677 6.80164 14.0323C6.10718 14.0453 5.58798 14.08 5.58798 14.08C7.51713 13.0198 7.46751 9.2126 7.46751 9.2126C7.16196 2.5378 11.1207 2.22222 11.8729 2.22222C11.9514 2.22222 11.9956 2.22613 11.9956 2.22613L11.9995 2.23713L12.0027 2.22564C12.0027 2.22564 12.0464 2.22173 12.1249 2.22173C12.8771 2.22173 16.8363 2.53804 16.5313 9.2126C16.5313 9.2126 16.4814 13.0193 18.4106 14.0795C18.4106 14.0795 17.5623 13.9128 16.5958 13.8045C17.357 14.0443 18.0463 14.4435 18.6293 14.961C19.7423 15.9441 20.4636 17.3587 20.5289 18.9442C22.0733 17.0507 23 14.6339 23 12C23 5.92458 18.0754 1 12 1C5.92482 1 1 5.92458 1 12C1 14.6339 1.92669 17.0507 3.4706 18.9447C3.53538 17.3592 4.25502 15.9451 5.36627 14.961Z" fill="#556080"/>
</svg>
