<svg width="24" height="24" viewBox="0 0 24 24" fill="none" xmlns="http://www.w3.org/2000/svg">
<g clip-path="url(#clip0_229_4514)">
<path d="M8.42861 18.816L4.84808 20.769C4.63797 20.8836 4.44914 21.0244 4.27344 21.1779C6.36098 22.9381 9.05578 24 12.0001 24C14.9226 24 17.6002 22.9539 19.6819 21.2178C19.4899 21.0556 19.2816 20.9098 19.0506 20.7948L15.2165 18.878C14.7211 18.6303 14.4082 18.124 14.4082 17.5702V16.0659C14.516 15.9432 14.6392 15.7856 14.7709 15.5995C15.2935 14.8614 15.6888 14.0495 15.9628 13.1977C16.4546 13.046 16.8168 12.5918 16.8168 12.052V10.4463C16.8168 10.0931 16.6597 9.77746 16.4156 9.55648V7.23527C16.4156 7.23527 16.8925 3.62305 12.0005 3.62305C7.10861 3.62305 7.58544 7.23527 7.58544 7.23527V9.55648C7.34091 9.77746 7.18423 10.0931 7.18423 10.4463V12.052C7.18423 12.475 7.40657 12.8472 7.7394 13.0623C8.14061 14.8089 9.19117 16.0659 9.19117 16.0659V17.5331C9.19072 18.0674 8.89819 18.5596 8.42861 18.816Z" fill="#E7ECED"/>
<path d="M12.2051 0.00178694C5.57884 -0.111421 0.114996 5.16858 0.00178812 11.7948C-0.0625138 15.552 1.61205 18.9287 4.27832 21.1743C4.45266 21.0222 4.63967 20.8827 4.84752 20.7695L8.42805 18.8164C8.89764 18.5601 9.19016 18.0679 9.19016 17.5327V16.0655C9.19016 16.0655 8.13915 14.8084 7.73839 13.0619C7.40601 12.8468 7.18322 12.475 7.18322 12.0516V10.4459C7.18322 10.0927 7.34035 9.77703 7.58443 9.55605V7.23484C7.58443 7.23484 7.1076 3.62262 11.9995 3.62262C16.8914 3.62262 16.4146 7.23484 16.4146 7.23484V9.55605C16.6591 9.77703 16.8158 10.0927 16.8158 10.4459V12.0516C16.8158 12.5914 16.4536 13.0456 15.9618 13.1973C15.6878 14.049 15.2925 14.861 14.7699 15.5991C14.6382 15.7852 14.515 15.9428 14.4072 16.0655V17.5698C14.4072 18.1236 14.7201 18.6303 15.2155 18.8776L19.0496 20.7944C19.2797 20.9094 19.4875 21.0548 19.6791 21.2164C22.2647 19.0601 23.9352 15.8359 23.9973 12.2051C24.1114 5.57884 18.8318 0.114994 12.2051 0.00178694Z" fill="#556080"/>
</g>
<defs>
<clipPath id="clip0_229_4514">
<rect width="24" height="24" fill="white"/>
</clipPath>
</defs>
</svg>
